<mxfile host="app.diagrams.net" modified="2024-02-11T15:40:41.220Z" agent="Mozilla/5.0 (Windows NT 10.0; Win64; x64) AppleWebKit/537.36 (KHTML, like Gecko) Chrome/121.0.0.0 Safari/537.36" etag="RWOiArs9G6VZA5tmq8BO" version="23.1.2" type="device">
  <diagram name="Page-1" id="P-5xKzaI7M9U87d7nagk">
    <mxGraphModel dx="1434" dy="772" grid="1" gridSize="10" guides="1" tooltips="1" connect="1" arrows="1" fold="1" page="1" pageScale="1" pageWidth="850" pageHeight="1100" math="0" shadow="0">
      <root>
        <mxCell id="0" />
        <mxCell id="1" parent="0" />
        <mxCell id="RgMGi3w3JgoJ1hdSAF0_-1" value="One time Setup" style="rounded=0;whiteSpace=wrap;html=1;" vertex="1" parent="1">
          <mxGeometry x="170" y="40" width="200" height="130" as="geometry" />
        </mxCell>
        <mxCell id="RgMGi3w3JgoJ1hdSAF0_-4" style="edgeStyle=orthogonalEdgeStyle;rounded=0;orthogonalLoop=1;jettySize=auto;html=1;entryX=0;entryY=0.5;entryDx=0;entryDy=0;" edge="1" parent="1" source="RgMGi3w3JgoJ1hdSAF0_-3">
          <mxGeometry relative="1" as="geometry">
            <mxPoint x="639.9999999999998" y="105" as="targetPoint" />
          </mxGeometry>
        </mxCell>
        <mxCell id="RgMGi3w3JgoJ1hdSAF0_-3" value="Get the System UUID&amp;nbsp;" style="whiteSpace=wrap;html=1;aspect=fixed;" vertex="1" parent="1">
          <mxGeometry x="490" y="65" width="80" height="80" as="geometry" />
        </mxCell>
        <mxCell id="RgMGi3w3JgoJ1hdSAF0_-7" style="edgeStyle=orthogonalEdgeStyle;rounded=0;orthogonalLoop=1;jettySize=auto;html=1;entryX=0.5;entryY=0;entryDx=0;entryDy=0;" edge="1" parent="1" source="RgMGi3w3JgoJ1hdSAF0_-5" target="RgMGi3w3JgoJ1hdSAF0_-6">
          <mxGeometry relative="1" as="geometry" />
        </mxCell>
        <mxCell id="RgMGi3w3JgoJ1hdSAF0_-5" value="Get the No of Camera" style="whiteSpace=wrap;html=1;aspect=fixed;" vertex="1" parent="1">
          <mxGeometry x="640" y="65" width="80" height="80" as="geometry" />
        </mxCell>
        <mxCell id="RgMGi3w3JgoJ1hdSAF0_-9" style="edgeStyle=orthogonalEdgeStyle;rounded=0;orthogonalLoop=1;jettySize=auto;html=1;entryX=0.5;entryY=0;entryDx=0;entryDy=0;" edge="1" parent="1" source="RgMGi3w3JgoJ1hdSAF0_-6" target="RgMGi3w3JgoJ1hdSAF0_-8">
          <mxGeometry relative="1" as="geometry" />
        </mxCell>
        <mxCell id="RgMGi3w3JgoJ1hdSAF0_-19" style="edgeStyle=orthogonalEdgeStyle;rounded=0;orthogonalLoop=1;jettySize=auto;html=1;entryX=1;entryY=0.5;entryDx=0;entryDy=0;" edge="1" parent="1" source="RgMGi3w3JgoJ1hdSAF0_-6" target="RgMGi3w3JgoJ1hdSAF0_-18">
          <mxGeometry relative="1" as="geometry" />
        </mxCell>
        <mxCell id="RgMGi3w3JgoJ1hdSAF0_-6" value="Camera Links" style="whiteSpace=wrap;html=1;aspect=fixed;" vertex="1" parent="1">
          <mxGeometry x="640" y="190" width="80" height="80" as="geometry" />
        </mxCell>
        <mxCell id="RgMGi3w3JgoJ1hdSAF0_-11" style="edgeStyle=orthogonalEdgeStyle;rounded=0;orthogonalLoop=1;jettySize=auto;html=1;entryX=0.5;entryY=0;entryDx=0;entryDy=0;" edge="1" parent="1" source="RgMGi3w3JgoJ1hdSAF0_-8" target="RgMGi3w3JgoJ1hdSAF0_-10">
          <mxGeometry relative="1" as="geometry" />
        </mxCell>
        <mxCell id="RgMGi3w3JgoJ1hdSAF0_-8" value="No Of PLC Controller" style="whiteSpace=wrap;html=1;aspect=fixed;" vertex="1" parent="1">
          <mxGeometry x="640" y="310" width="80" height="80" as="geometry" />
        </mxCell>
        <mxCell id="RgMGi3w3JgoJ1hdSAF0_-10" value="For each PLC get IP address and Port No" style="whiteSpace=wrap;html=1;aspect=fixed;" vertex="1" parent="1">
          <mxGeometry x="640" y="440" width="80" height="80" as="geometry" />
        </mxCell>
        <mxCell id="RgMGi3w3JgoJ1hdSAF0_-12" value="" style="shape=cylinder3;whiteSpace=wrap;html=1;boundedLbl=1;backgroundOutline=1;size=15;" vertex="1" parent="1">
          <mxGeometry x="440" y="210" width="60" height="80" as="geometry" />
        </mxCell>
        <mxCell id="RgMGi3w3JgoJ1hdSAF0_-14" style="edgeStyle=orthogonalEdgeStyle;rounded=0;orthogonalLoop=1;jettySize=auto;html=1;entryX=1;entryY=0.5;entryDx=0;entryDy=0;entryPerimeter=0;" edge="1" parent="1" source="RgMGi3w3JgoJ1hdSAF0_-10" target="RgMGi3w3JgoJ1hdSAF0_-12">
          <mxGeometry relative="1" as="geometry" />
        </mxCell>
        <mxCell id="RgMGi3w3JgoJ1hdSAF0_-15" style="edgeStyle=orthogonalEdgeStyle;rounded=0;orthogonalLoop=1;jettySize=auto;html=1;entryX=1;entryY=0.5;entryDx=0;entryDy=0;entryPerimeter=0;" edge="1" parent="1" source="RgMGi3w3JgoJ1hdSAF0_-3" target="RgMGi3w3JgoJ1hdSAF0_-12">
          <mxGeometry relative="1" as="geometry" />
        </mxCell>
        <mxCell id="RgMGi3w3JgoJ1hdSAF0_-16" value="Get the Model Link" style="whiteSpace=wrap;html=1;aspect=fixed;" vertex="1" parent="1">
          <mxGeometry x="770" y="190" width="80" height="80" as="geometry" />
        </mxCell>
        <mxCell id="RgMGi3w3JgoJ1hdSAF0_-17" value="License" style="whiteSpace=wrap;html=1;aspect=fixed;" vertex="1" parent="1">
          <mxGeometry x="770" y="60" width="80" height="80" as="geometry" />
        </mxCell>
        <mxCell id="RgMGi3w3JgoJ1hdSAF0_-18" value="Camera Test" style="whiteSpace=wrap;html=1;aspect=fixed;" vertex="1" parent="1">
          <mxGeometry x="425" y="340" width="90" height="90" as="geometry" />
        </mxCell>
        <mxCell id="RgMGi3w3JgoJ1hdSAF0_-20" style="edgeStyle=orthogonalEdgeStyle;rounded=0;orthogonalLoop=1;jettySize=auto;html=1;entryX=0.5;entryY=1;entryDx=0;entryDy=0;entryPerimeter=0;" edge="1" parent="1" source="RgMGi3w3JgoJ1hdSAF0_-18" target="RgMGi3w3JgoJ1hdSAF0_-12">
          <mxGeometry relative="1" as="geometry" />
        </mxCell>
        <mxCell id="RgMGi3w3JgoJ1hdSAF0_-21" value="Display the feeds" style="whiteSpace=wrap;html=1;aspect=fixed;" vertex="1" parent="1">
          <mxGeometry x="145" y="660" width="370" height="370" as="geometry" />
        </mxCell>
        <mxCell id="RgMGi3w3JgoJ1hdSAF0_-22" value="Passing to the model and showing the JAM" style="whiteSpace=wrap;html=1;aspect=fixed;" vertex="1" parent="1">
          <mxGeometry x="680" y="805" width="80" height="80" as="geometry" />
        </mxCell>
        <mxCell id="RgMGi3w3JgoJ1hdSAF0_-23" value="Check the Camera Feed" style="whiteSpace=wrap;html=1;aspect=fixed;" vertex="1" parent="1">
          <mxGeometry x="20" y="720" width="80" height="80" as="geometry" />
        </mxCell>
        <mxCell id="RgMGi3w3JgoJ1hdSAF0_-24" value="" style="whiteSpace=wrap;html=1;aspect=fixed;" vertex="1" parent="1">
          <mxGeometry x="400" y="900" width="80" height="80" as="geometry" />
        </mxCell>
        <mxCell id="RgMGi3w3JgoJ1hdSAF0_-25" value="" style="whiteSpace=wrap;html=1;aspect=fixed;" vertex="1" parent="1">
          <mxGeometry x="170" y="900" width="80" height="80" as="geometry" />
        </mxCell>
        <mxCell id="RgMGi3w3JgoJ1hdSAF0_-26" value="" style="whiteSpace=wrap;html=1;aspect=fixed;" vertex="1" parent="1">
          <mxGeometry x="170" y="690" width="80" height="80" as="geometry" />
        </mxCell>
        <mxCell id="RgMGi3w3JgoJ1hdSAF0_-27" value="" style="whiteSpace=wrap;html=1;aspect=fixed;" vertex="1" parent="1">
          <mxGeometry x="400" y="690" width="80" height="80" as="geometry" />
        </mxCell>
      </root>
    </mxGraphModel>
  </diagram>
</mxfile>
